<svg width="21" height="21" viewBox="0 0 21 21" fill="#DF3131" xmlns="http://www.w3.org/2000/svg">
<path d="M10.805 9.03832C10.7827 8.91537 10.7152 8.80521 10.6158 8.72954C10.5164 8.65386 10.3922 8.61815 10.2678 8.62944C10.1434 8.64073 10.0277 8.6982 9.9435 8.79054C9.85932 8.88287 9.81276 9.00337 9.81299 9.12832V13.6303L9.82099 13.7203C9.84325 13.8433 9.91073 13.9534 10.0102 14.0291C10.1096 14.1048 10.2337 14.1405 10.3582 14.1292C10.4826 14.1179 10.5983 14.0604 10.6825 13.9681C10.7667 13.8758 10.8132 13.7553 10.813 13.6303V9.12832L10.805 9.03832ZM11.112 6.87832C11.112 6.67941 11.033 6.48864 10.8923 6.34799C10.7517 6.20734 10.5609 6.12832 10.362 6.12832C10.1631 6.12832 9.97231 6.20734 9.83166 6.34799C9.69101 6.48864 9.61199 6.67941 9.61199 6.87832C9.61199 7.07723 9.69101 7.268 9.83166 7.40865C9.97231 7.5493 10.1631 7.62832 10.362 7.62832C10.5609 7.62832 10.7517 7.5493 10.8923 7.40865C11.033 7.268 11.112 7.07723 11.112 6.87832ZM18.313 10.1283C18.313 8.00659 17.4701 5.97176 15.9698 4.47146C14.4696 2.97117 12.4347 2.12832 10.313 2.12832C8.19126 2.12832 6.15643 2.97117 4.65613 4.47146C3.15584 5.97176 2.31299 8.00659 2.31299 10.1283C2.31299 12.2501 3.15584 14.2849 4.65613 15.7852C6.15643 17.2855 8.19126 18.1283 10.313 18.1283C12.4347 18.1283 14.4696 17.2855 15.9698 15.7852C17.4701 14.2849 18.313 12.2501 18.313 10.1283ZM3.31299 10.1283C3.31299 9.20907 3.49405 8.29881 3.84583 7.44953C4.19761 6.60026 4.71323 5.82858 5.36324 5.17857C6.01325 4.52856 6.78493 4.01294 7.6342 3.66116C8.48348 3.30938 9.39374 3.12832 10.313 3.12832C11.2322 3.12832 12.1425 3.30938 12.9918 3.66116C13.8411 4.01294 14.6127 4.52856 15.2627 5.17857C15.9127 5.82858 16.4284 6.60026 16.7801 7.44953C17.1319 8.29881 17.313 9.20907 17.313 10.1283C17.313 11.9848 16.5755 13.7653 15.2627 15.0781C13.95 16.3908 12.1695 17.1283 10.313 17.1283C8.45647 17.1283 6.676 16.3908 5.36324 15.0781C4.05049 13.7653 3.31299 11.9848 3.31299 10.1283Z" fill="#FF0000"/>
</svg>
