<svg width="25" height="25" viewBox="0 0 25 25" fill="none" xmlns="http://www.w3.org/2000/svg">
<g id="Lock">
<g id="Iconly/Bold/Lock">
<g id="Lock_2">
<path id="Vector" d="M12.7836 2.72754C15.8523 2.72754 18.3215 5.14233 18.3215 8.12354V9.65688C20.0439 10.1945 21.2988 11.7537 21.2988 13.6159V18.5528C21.2988 20.8583 19.3875 22.7275 17.031 22.7275H8.56763C6.21018 22.7275 4.29883 20.8583 4.29883 18.5528V13.6159C4.29883 11.7537 5.55478 10.1945 7.27611 9.65688V8.12354C7.28628 5.14233 9.75549 2.72754 12.7836 2.72754ZM12.7937 14.1118C12.306 14.1118 11.9097 14.4994 11.9097 14.9764V17.1825C11.9097 17.6694 12.306 18.057 12.7937 18.057C13.2917 18.057 13.6879 17.6694 13.6879 17.1825V14.9764C13.6879 14.4994 13.2917 14.1118 12.7937 14.1118ZM12.8039 4.46658C10.7411 4.46658 9.06452 6.09632 9.05436 8.10367V9.44124H16.5433V8.12354C16.5433 6.10625 14.8667 4.46658 12.8039 4.46658Z" fill="#3E3E44"/>
</g>
</g>
</g>
</svg>
