<svg width="25" height="25" viewBox="0 0 25 25" fill="none" xmlns="http://www.w3.org/2000/svg">
<g id="Message">
<g id="Iconly/Bold/Message">
<g id="Message_2">
<path id="Vector" d="M17.7383 3.92871C19.0793 3.92871 20.3693 4.45871 21.3183 5.40971C22.2683 6.35871 22.7993 7.63871 22.7993 8.97871V16.8787C22.7993 19.6687 20.5293 21.9287 17.7383 21.9287H7.85932C5.06832 21.9287 2.79932 19.6687 2.79932 16.8787V8.97871C2.79932 6.18871 5.05832 3.92871 7.85932 3.92871H17.7383ZM18.8693 9.12871C18.6593 9.11771 18.4593 9.18871 18.3083 9.32871L13.7993 12.9287C13.2193 13.4097 12.3883 13.4097 11.7993 12.9287L7.29932 9.32871C6.98832 9.09871 6.55832 9.12871 6.29932 9.39871C6.02932 9.66871 5.99932 10.0987 6.22832 10.3987L6.35932 10.5287L10.9093 14.0787C11.4693 14.5187 12.1483 14.7587 12.8593 14.7587C13.5683 14.7587 14.2593 14.5187 14.8183 14.0787L19.3293 10.4687L19.4093 10.3887C19.6483 10.0987 19.6483 9.67871 19.3983 9.38871C19.2593 9.23971 19.0683 9.14871 18.8693 9.12871Z" fill="#3E3E44"/>
</g>
</g>
</g>
</svg>
